<svg id="Layer_1" data-name="Layer 1" xmlns="http://www.w3.org/2000/svg" viewBox="0 0 301.39 278.39"><title>Dragonfly</title><path d="M268,197.18c-9.94-6.62-24.83-.49-34.37,4.41-4.86,2.5-9.44,5.87-12.46,10.5-3.93,6-4.15,13.34-4,20.29.23,13.51,4.55,24.78,16.39,32.1,11,6.8,25.59,9.17,38,5.26,11.3-3.56,20.79-13.24,22.08-25.35,1.27-11.92-6.7-25-15.93-32-9-6.81-22-8.41-31.31-1.19s-9.94,21.59-4.6,31.31c6,11,22.49,15.47,30.7,4.25,8.81-12-3.51-23.1-14.71-26.19a1.5,1.5,0,0,0-.8,2.89c10.07,2.78,22,13.6,11.27,23.55-10.37,9.59-24.06-1.69-26.27-12.7s2.93-22.06,14.49-24.41c10.32-2.1,19.79,3.51,26,11.45s10.51,18.31,6.9,28.26c-3.76,10.34-13.45,16.85-24.05,18.51A45.53,45.53,0,0,1,235,261.89c-9.87-6.09-14.33-15.39-14.83-26.8-.28-6.52-.57-13.79,2.52-19.73,2.43-4.68,6.63-8,11.16-10.52,8.58-4.74,23.52-11.1,32.58-5.07,1.61,1.07,3.12-1.52,1.51-2.59Z" transform="translate(-143.08 -122.52)"/><path d="M311.49,265.82a266.77,266.77,0,0,1,18.67-66.16c8.56-19.91,19.4-40.59,33.9-56.87,7.92-8.89,18.32-16.36,30.57-17.17,6-.39,12.6.83,17.18,5,4.42,4,7.34,10.13,9.1,15.72,7.07,22.51-2.52,45.48-15,64.07-14,20.9-31.29,41.13-53.7,53.23-1.7.92-.19,3.51,1.51,2.59,21.44-11.58,37.85-30.33,51.78-50,13.53-19.08,24.58-42.07,19.51-66-2-9.6-7-20.92-16.43-25.25-9.72-4.46-21.33-2.32-30.46,2.51-10.29,5.44-18,14.57-24.57,23.94A256,256,0,0,0,334.14,184a268.8,268.8,0,0,0-25.55,81c-.28,1.89,2.61,2.7,2.89.8Z" transform="translate(-143.08 -122.52)"/><path d="M265.87,288.5a263.71,263.71,0,0,0-103,21.62C154,314,145.24,317.45,143.51,328a36.27,36.27,0,0,0,5.93,25.85c5.32,7.58,13.72,11.77,22.55,13.84,20.79,4.88,43.37.78,62-9.23,20.43-11,36.17-29.26,45.74-50.21.8-1.74-1.79-3.27-2.59-1.51-16,35.08-50.23,61.29-89.93,59.89-9.75-.34-20.38-2.05-28.57-7.73-8.53-5.92-12.69-16.36-12.52-26.52.1-5.89,2-11.15,7.12-14.39,4.33-2.73,9.39-4.61,14.1-6.57a260.74,260.74,0,0,1,29.1-10.1,264.08,264.08,0,0,1,69.4-9.85,1.5,1.5,0,0,0,0-3Z" transform="translate(-143.08 -122.52)"/><path d="M276,325.58a107.69,107.69,0,0,0,3.36,53.57c2.21,6.67,4.93,13.7,10.92,17.88a21,21,0,0,0,31.59-9c3.26-7.51,1-15.72-.59-23.36-2-9.49-3.9-19.37-7.68-28.35-3.33-7.92-8.83-14.4-14.42-20.8-1.27-1.46-3.39.67-2.12,2.12,4.92,5.63,9.86,11.34,13.06,18.16,3.31,7.07,4.94,14.92,6.69,22.48,3,13.2,8.78,33.24-8.85,38.82a18.58,18.58,0,0,1-19-5.22c-4.86-5.39-7-13.51-8.72-20.38a104.64,104.64,0,0,1-1.36-45.14c.35-1.89-2.54-2.7-2.89-.8Z" transform="translate(-143.08 -122.52)"/><path d="M369.35,275a54.66,54.66,0,0,1,34.2,0c10.52,3.46,26.36,12.48,26.3,25.31-.08,16.34-21.8,17.6-33.32,15-12.56-2.81-23.71-9.75-34.25-16.87-1.6-1.08-3.11,1.51-1.51,2.59,12.87,8.7,27,17.22,42.87,18.36,11.76.85,27.71-3.57,29.12-17.54,1.35-13.36-13-23.39-23.71-28a57.52,57.52,0,0,0-40.5-1.75c-1.83.6-1,3.5.8,2.89Z" transform="translate(-143.08 -122.52)"/><path d="M281.74,295.45a421.28,421.28,0,0,0,69.11,61.15,341.68,341.68,0,0,0,39.25,23.72q10.37,5.33,21.13,9.89c6.29,2.66,12.92,5.91,19.66,7.17,4.24.8,9.37.65,12.08-3.23,3.44-4.94.33-11.25-2.53-15.66-7.55-11.65-20-18.8-31.16-26.48-27.2-18.7-51.73-40.91-78.21-60.58-7.38-5.48-14.91-10.76-22.66-15.69-6.06-3.85-13.44-9.7-21.11-8.35A15.31,15.31,0,0,0,275.45,279c-1.66,7.58,3.83,12.53,7.89,18.16,1.12,1.55,3.72.06,2.59-1.51-4.24-5.88-10.69-11.62-6.22-19.37,5.27-9.14,14.66-5.59,21.89-1.22a379.52,379.52,0,0,1,33.64,23.26c22.21,16.94,43.25,35.39,66,51.68,10.27,7.37,21.71,13.65,30.65,22.68,3.68,3.72,12.73,13.44,8.88,19.46-4.08,6.38-15.64.41-20.63-1.53A325.71,325.71,0,0,1,351,353a418.86,418.86,0,0,1-67.13-59.72c-1.31-1.43-3.42.7-2.12,2.12Z" transform="translate(-143.08 -122.52)"/><path d="M393.28,144.35C373.34,178,368,217.63,350.4,252.31c-.87,1.72,1.72,3.24,2.59,1.51,17.59-34.68,23-74.35,42.88-108a1.5,1.5,0,0,0-2.59-1.51Z" transform="translate(-143.08 -122.52)"/><path d="M357,159a233.29,233.29,0,0,0,8.21,45.84,1.5,1.5,0,0,0,2.89-.8A229.17,229.17,0,0,1,360,159c-.15-1.91-3.15-1.93-3,0Z" transform="translate(-143.08 -122.52)"/><path d="M366.42,227a91.75,91.75,0,0,0,24.48-24.58c1.08-1.6-1.51-3.11-2.59-1.51a87.78,87.78,0,0,1-23.4,23.5c-1.59,1.08-.09,3.68,1.51,2.59Z" transform="translate(-143.08 -122.52)"/><path d="M325.53,231.41a71.36,71.36,0,0,0,15.3,24.42c1.34,1.4,3.46-.72,2.12-2.12a67.58,67.58,0,0,1-14.53-23.1c-.67-1.79-3.57-1-2.89.8Z" transform="translate(-143.08 -122.52)"/><path d="M262.1,306.8c-12.56,9.17-24.87,19.79-39.36,25.78-14.83,6.13-30.36,10.84-45.5,16.13-1.81.63-1,3.53.8,2.89,15.68-5.48,31.85-10.27,47.12-16.81,14.1-6,26.16-16.42,38.46-25.4,1.54-1.13,0-3.73-1.51-2.59Z" transform="translate(-143.08 -122.52)"/><path d="M227.68,327.12q-24.67-.62-49.34-.23c-1.93,0-1.93,3,0,3q24.67-.39,49.34.23c1.93,0,1.93-3,0-3Z" transform="translate(-143.08 -122.52)"/><path d="M244.77,323.67a152.5,152.5,0,0,1-.32,19.35c-.15,1.92,2.85,1.91,3,0a152.5,152.5,0,0,0,.32-19.35c-.09-1.92-3.09-1.93-3,0Z" transform="translate(-143.08 -122.52)"/><path d="M256.73,308.87a33.63,33.63,0,0,0-17.53,1.85c-1.78.69-1,3.59.8,2.89a30.68,30.68,0,0,1,15.94-1.85c1.89.29,2.7-2.6.8-2.89Z" transform="translate(-143.08 -122.52)"/><path d="M291,331a96.41,96.41,0,0,0,9.57,53.28c.86,1.73,3.45.21,2.59-1.51A93.55,93.55,0,0,1,294,331c.21-1.92-2.8-1.9-3,0Z" transform="translate(-143.08 -122.52)"/><path d="M294.51,358.84a105.37,105.37,0,0,1,12.68,13.29c1.21,1.51,3.32-.63,2.12-2.12a105.37,105.37,0,0,0-12.68-13.29c-1.44-1.27-3.57.84-2.12,2.12Z" transform="translate(-143.08 -122.52)"/><path d="M292.15,336.86a20.47,20.47,0,0,0-10.52,13.76c-.42,1.88,2.48,2.68,2.89.8a17.58,17.58,0,0,1,9.14-12c1.71-.9.2-3.49-1.51-2.59Z" transform="translate(-143.08 -122.52)"/><path d="M361,289.17h50a1.5,1.5,0,0,0,0-3H361a1.5,1.5,0,0,0,0,3Z" transform="translate(-143.08 -122.52)"/><path d="M396.16,293.1l17.44,10.49a1.5,1.5,0,0,0,1.51-2.59l-17.44-10.49a1.5,1.5,0,0,0-1.51,2.59Z" transform="translate(-143.08 -122.52)"/><path d="M379.53,289.92l19.71-12.06c1.64-1,.14-3.6-1.51-2.59L378,287.33c-1.64,1-.14,3.6,1.51,2.59Z" transform="translate(-143.08 -122.52)"/></svg>